<svg width="500" height="500" viewBox="0 0 500 500" fill="none" xmlns="http://www.w3.org/2000/svg">
<g clip-path="url(#clip0)">
<path fill-rule="evenodd" clip-rule="evenodd" d="M178.761 228.641L197.223 210.371L237.654 250.382L219.192 268.651L178.761 228.641Z" fill="#2AD78B"/>
<path fill-rule="evenodd" clip-rule="evenodd" d="M178.674 272.134L197.136 253.864L224.767 281.208C224.395 285.647 222.495 289.557 219.068 292.938C215.641 296.32 211.386 298.499 206.305 299.477L178.674 272.134Z" fill="#2AD78B"/>
<path fill-rule="evenodd" clip-rule="evenodd" d="M197.136 290.355L178.674 272.085L219.105 232.075L237.567 250.344L197.136 290.355Z" fill="#2AD78B"/>
<path fill-rule="evenodd" clip-rule="evenodd" d="M197.223 246.948L178.761 228.679L206.515 201.213C212.129 201.517 216.537 203.253 219.738 206.421C222.94 209.589 224.686 213.943 224.977 219.483L197.223 246.948Z" fill="#2AD78B"/>
<path d="M167.667 250.167C167.667 235.899 156.101 224.333 141.833 224.333C127.566 224.333 116 235.899 116 250.167C116 264.434 127.566 276 141.833 276C156.101 276 167.667 264.434 167.667 250.167Z" fill="#C8D1E0"/>
<path fill-rule="evenodd" clip-rule="evenodd" d="M71 250.333C71 212.41 102.032 181.667 140.313 181.667C159.454 181.667 176.784 189.353 189.327 201.781L170.742 220.077C162.943 212.403 152.193 207.66 140.324 207.66C116.501 207.66 97.188 226.766 97.188 250.333C97.188 273.901 116.501 293.006 140.324 293.006C152.196 293.006 162.949 288.261 170.748 280.584L189.333 298.879C176.789 311.311 159.458 319 140.313 319C102.032 319 71 288.257 71 250.333Z" fill="#0F1758"/>
</g>
<g clip-path="url(#clip1)">
<path fill-rule="evenodd" clip-rule="evenodd" d="M321.906 272.026L303.444 290.295L263.013 250.285L281.475 232.015L321.906 272.026Z" fill="#2AD78B"/>
<path fill-rule="evenodd" clip-rule="evenodd" d="M321.993 228.533L303.531 246.803L275.9 219.459C276.272 215.02 278.171 211.11 281.599 207.728C285.026 204.347 289.28 202.167 294.361 201.189L321.993 228.533Z" fill="#2AD78B"/>
<path fill-rule="evenodd" clip-rule="evenodd" d="M303.531 210.312L321.993 228.582L281.562 268.592L263.1 250.322L303.531 210.312Z" fill="#2AD78B"/>
<path fill-rule="evenodd" clip-rule="evenodd" d="M303.444 253.718L321.906 271.988L294.152 299.453C288.537 299.15 284.129 297.414 280.928 294.246C277.727 291.078 275.981 286.724 275.69 281.184L303.444 253.718Z" fill="#2AD78B"/>
<path d="M333 250.5C333 264.767 344.566 276.333 358.833 276.333C373.101 276.333 384.667 264.767 384.667 250.5C384.667 236.233 373.101 224.667 358.833 224.667C344.566 224.667 333 236.233 333 250.5Z" fill="#C8D1E0"/>
<path fill-rule="evenodd" clip-rule="evenodd" d="M429.667 250.333C429.667 288.257 398.634 319 360.354 319C341.212 319 323.883 311.313 311.34 298.886L329.924 280.59C337.724 288.264 348.474 293.006 360.343 293.006C384.166 293.006 403.479 273.901 403.479 250.333C403.479 226.766 384.166 207.66 360.343 207.66C348.47 207.66 337.718 212.405 329.918 220.083L311.333 201.787C323.877 189.356 341.209 181.667 360.354 181.667C398.634 181.667 429.667 212.41 429.667 250.333Z" fill="#0F1758"/>
</g>
<defs>
<clipPath id="clip0">
<rect width="166.667" height="166.667" fill="white" transform="translate(71 333.667) rotate(-90)"/>
</clipPath>
<clipPath id="clip1">
<rect width="166.667" height="166.667" fill="white" transform="translate(429.667 167) rotate(90)"/>
</clipPath>
</defs>
</svg>
